<svg xmlns="http://www.w3.org/2000/svg" xmlns:xlink="http://www.w3.org/1999/xlink" viewBox="0 0 66 66"><defs><style>.cls-1{fill:#fff}.cls-1,.cls-2{display:none}.cls-2,.cls-3{fill:#091f2f}</style></defs><g id="Layer_1"><circle class="cls-1" cx="33" cy="33" r="31.4"/><path class="cls-3" d="M33 65.9C14.8 65.9 0 51.2 0 33S14.8 0 33 0s32.9 14.7 32.9 32.9S51.1 65.8 33 65.8zm0-62.8C16.5 3.1 3.1 16.5 3.1 33S16.5 62.9 33 62.9 62.9 49.5 62.9 33 49.5 3.1 33 3.1z"/><circle class="cls-2" cx="33.1" cy="33.4" r="21.9"/><path class="cls-1" d="M47 29.1c0 6.5-4.1 10.3-11.1 10.3h-5V47h-7.2V19.4h12.2c7.1 0 11.2 3.5 11.2 9.7zm-6.9.3c0-2.7-1.7-4.2-4.6-4.2h-4.6v8.5h4.6c2.9 0 4.6-1.5 4.6-4.3z"/><image width="306" height="302" transform="matrix(.2 0 0 .2 -3.1 -1.4)" xlink:href="bluesky_social-1.png"/><path class="cls-3" d="M22.9 20.5c4.1 3.1 8.5 9.3 10.1 12.6 1.6-3.3 6-9.5 10.1-12.6 2.9-2.2 7.7-3.9 7.7 1.5s-.6 9.1-1 10.4c-1.3 4.5-5.9 5.7-10 5 7.2 1.2 9 5.3 5.1 9.3-7.5 7.7-10.8-1.9-11.6-4.4-.2-.5-.2-.7-.2-.5 0-.2 0 0-.2.5-.8 2.5-4.1 12.1-11.6 4.4-3.9-4.1-2.1-8.1 5.1-9.3-4.1.7-8.7-.5-10-5-.4-1.3-1-9.3-1-10.4 0-5.4 4.8-3.7 7.7-1.5z"/></g></svg>